<?xml version="1.0" encoding="iso-8859-1"?>
<!-- Generator: Adobe Illustrator 16.0.0, SVG Export Plug-In . SVG Version: 6.00 Build 0)  -->
<!DOCTYPE svg PUBLIC "-//W3C//DTD SVG 1.1//EN" "http://www.w3.org/Graphics/SVG/1.1/DTD/svg11.dtd">
<svg version="1.1" id="Layer_1" xmlns="http://www.w3.org/2000/svg" xmlns:xlink="http://www.w3.org/1999/xlink" x="0px" y="0px"
	 width="2180.536px" height="388.147px" viewBox="0 0 2180.536 388.147" style="enable-background:new 0 0 2180.536 388.147;"
	 xml:space="preserve">
<path style="fill-rule:evenodd;clip-rule:evenodd;fill:none;" d="M0,49.495c0-1.617,0-3.232,0-4.849c88.857,0,177.715,0,266.595,0
	c0,99.79,0,199.581,0,299.418c-88.85,0-177.723,0-266.595,0c0-11.936,0-23.912,0-35.889c0.385-0.039,0.77-0.111,1.154-0.111
	c24.463-0.004,48.925-0.004,73.388,0c0.463,0,0.926,0.053,1.458,0.086c0,2.076-0.056,3.979,0.039,5.873
	c0.025,0.494,0.398,1.189,0.823,1.414c4.664,2.484,9.367,4.893,14.063,7.314c4.909,2.533,9.817,5.068,14.736,7.582
	c8.431,4.309,16.878,8.586,25.295,12.92c0.894,0.461,1.567,0.395,2.419-0.037c4.157-2.117,8.343-4.18,12.521-6.254
	c9.435-4.689,18.871-9.371,28.306-14.061c4.565-2.27,9.11-4.58,13.709-6.785c1.012-0.484,1.295-1.064,1.258-2.082
	c-0.07-1.932-0.02-3.867-0.02-5.975c0.794,0,1.415,0,2.034,0c23.682,0,47.363,0.002,71.044-0.002c2.439,0,2.218,0.238,2.218-2.121
	c0.002-84.749,0.001-169.496,0.001-254.244c0-0.237-0.028-0.479,0.004-0.712c0.146-1.046-0.275-1.394-1.384-1.393
	c-33.546,0.025-67.09,0.016-100.635,0.05c-0.598,0-1.371,0.286-1.766,0.704c-2.234,2.357-4.389,4.787-6.55,7.209
	c-3.048,3.416-6.062,6.86-9.12,10.269c-2.393,2.665-4.834,5.291-7.247,7.939c-0.834,0.915-1.135,1.94-1.134,3.214
	c0.04,42.16,0.033,84.319,0.033,126.479c0,2.94-0.002,2.938-2.941,3.891c-0.197,0.062-0.363,0.216-0.65,0.395
	c0.612,0.315,1.078,0.564,1.549,0.8c16.007,7.993,32.015,15.984,48.024,23.975c0.827,0.413,1.537,0.726,1.534,1.931
	c-0.044,24.953-0.037,49.908-0.018,74.861c0,0.811-0.238,1.285-1.01,1.666c-16.448,8.088-32.886,16.195-49.313,24.326
	c-0.785,0.387-1.31,0.283-1.945-0.256c-1.36-1.154-2.786-2.238-4.184-3.35c-11.94-9.502-23.875-19.01-35.832-28.492
	c-0.836-0.662-1.183-1.369-1.15-2.428c0.138-4.463,0.226-8.932,0.275-13.396c0.122-11.025,0.21-22.051,0.319-33.076
	c0.042-4.324,0.058-8.65,0.199-12.973c0.025-0.752,0.409-1.717,0.974-2.193c10.688-9.034,21.428-18.01,32.154-27.001
	c1.821-1.525,3.627-3.069,5.678-4.805c-2.429-0.472-2.422-1.973-2.42-3.646c0.032-32.321,0.024-64.642,0.024-96.963
	c0-10.172,0.018-20.343-0.039-30.514c-0.004-0.753-0.387-1.63-0.878-2.229c-1.418-1.732-2.994-3.343-4.488-5.017
	c-3.079-3.454-6.143-6.919-9.217-10.375c-2.504-2.816-5.027-5.615-7.517-8.443c-1.405-1.596-2.771-2.628-5.307-2.618
	c-32.812,0.131-65.624,0.088-98.436,0.083C1.357,49.604,0.679,49.532,0,49.495z M139.569,303.953
	c1.452-0.139,4.091-0.252,6.68-0.664c8.984-1.428,16.979-4.898,23.452-11.273c5.706-5.619,8.924-12.342,8.58-20.334
	c-0.371-8.592-4.531-15.441-11.292-20.729c-10.76-8.418-23.193-10.859-36.61-8.846c-8.513,1.279-16.144,4.627-22.455,10.484
	c-5.745,5.332-9.254,11.773-9.37,19.596c-0.138,9.365,4.264,16.713,11.573,22.463C118.341,301.109,127.939,303.791,139.569,303.953z
	"/>
<path style="fill-rule:evenodd;clip-rule:evenodd;fill:#168DCD;" d="M0,49.495c0.679,0.038,1.357,0.109,2.036,0.109
	c32.812,0.005,65.625,0.049,98.436-0.083c2.536-0.01,3.902,1.022,5.307,2.618c2.489,2.828,5.012,5.626,7.517,8.443
	c3.074,3.456,6.138,6.921,9.217,10.375c1.494,1.674,3.069,3.285,4.488,5.017c0.492,0.599,0.875,1.476,0.878,2.229
	c0.057,10.171,0.039,20.342,0.039,30.514c0,32.321,0.008,64.642-0.024,96.963c-0.001,1.674-0.008,3.175,2.42,3.646
	c-2.051,1.735-3.857,3.279-5.678,4.805c-10.726,8.991-21.466,17.968-32.154,27.001c-0.564,0.477-0.949,1.441-0.974,2.193
	c-0.141,4.322-0.156,8.648-0.199,12.973c-0.109,11.025-0.197,22.051-0.319,33.076c-0.049,4.465-0.138,8.934-0.275,13.396
	c-0.033,1.059,0.313,1.766,1.15,2.428c11.956,9.482,23.892,18.99,35.832,28.492c1.398,1.111,2.823,2.195,4.184,3.35
	c0.635,0.539,1.16,0.643,1.945,0.256c16.427-8.131,32.865-16.238,49.313-24.326c0.772-0.381,1.01-0.855,1.01-1.666
	c-0.019-24.953-0.026-49.908,0.018-74.861c0.003-1.206-0.707-1.518-1.534-1.931c-16.009-7.99-32.017-15.981-48.024-23.975
	c-0.472-0.235-0.937-0.484-1.549-0.8c0.287-0.179,0.453-0.333,0.65-0.395c2.939-0.953,2.941-0.95,2.941-3.891
	c0-42.16,0.007-84.319-0.033-126.479c-0.001-1.273,0.3-2.299,1.134-3.214c2.413-2.648,4.854-5.274,7.247-7.939
	c3.059-3.408,6.072-6.853,9.12-10.269c2.161-2.423,4.316-4.853,6.55-7.209c0.395-0.418,1.167-0.704,1.766-0.704
	c33.544-0.034,67.089-0.025,100.635-0.05c1.109-0.001,1.53,0.346,1.384,1.393c-0.032,0.233-0.004,0.475-0.004,0.712
	c0,84.748,0,169.496-0.001,254.244c0,2.359,0.221,2.121-2.218,2.121c-23.681,0.004-47.363,0.002-71.044,0.002
	c-0.619,0-1.239,0-2.034,0c0,2.107-0.05,4.043,0.02,5.975c0.037,1.018-0.247,1.598-1.258,2.082
	c-4.599,2.205-9.144,4.516-13.709,6.785c-9.435,4.689-18.871,9.371-28.306,14.061c-4.179,2.074-8.364,4.137-12.521,6.254
	c-0.852,0.432-1.525,0.498-2.419,0.037c-8.417-4.334-16.864-8.611-25.295-12.92c-4.919-2.514-9.828-5.049-14.736-7.582
	c-4.696-2.422-9.4-4.83-14.063-7.314c-0.425-0.225-0.798-0.92-0.823-1.414c-0.095-1.895-0.039-3.797-0.039-5.873
	c-0.532-0.033-0.996-0.086-1.458-0.086c-24.463-0.004-48.925-0.004-73.388,0c-0.385,0-0.77,0.072-1.154,0.111
	C0,221.948,0,135.72,0,49.495z M3.073,51.946c0,84.649,0,169.13,0,253.777c0.7,0,1.275,0,1.851,0c22.704,0,45.409,0,68.114,0
	c2.046,0,2.05-0.002,2.05-2.033c0.001-23.195,0.012-46.391-0.027-69.585c-0.002-1.254,0.349-1.928,1.536-2.519
	c15.799-7.87,31.563-15.809,47.354-23.691c0.959-0.48,1.306-1.021,1.298-2.072c-0.052-6.32-0.026-12.644-0.026-18.964
	c0-35.887,0.004-71.772-0.027-107.657c-0.001-0.745-0.185-1.675-0.656-2.204c-7.06-7.939-14.201-15.811-21.271-23.743
	c-0.886-0.995-1.793-1.339-3.131-1.336c-31.64,0.037-63.28,0.028-94.921,0.028C4.588,51.946,3.958,51.946,3.073,51.946z
	 M261.755,305.637c0-0.848,0-1.512,0-2.174c0-83.035,0-166.068,0-249.103c0-0.332-0.04-0.67,0.006-0.997
	c0.167-1.153-0.367-1.438-1.497-1.437c-32.127,0.025-64.255,0.016-96.383,0.057c-0.669,0.001-1.536,0.378-1.979,0.865
	c-7.112,7.833-14.153,15.725-21.259,23.563c-0.903,0.998-1.267,1.993-1.266,3.317c0.03,41.779,0.036,83.558-0.016,125.335
	c-0.002,1.632,0.556,2.418,2.007,3.141c15.588,7.749,31.131,15.584,46.713,23.344c1.262,0.629,1.689,1.345,1.687,2.729
	c-0.05,23.148-0.035,46.294-0.035,69.441c0,0.639,0,1.279,0,1.92C213.857,305.637,237.714,305.637,261.755,305.637z"/>
<path style="fill-rule:evenodd;clip-rule:evenodd;" d="M139.569,303.953c-11.629-0.162-21.228-2.844-29.441-9.303
	c-7.31-5.75-11.711-13.098-11.573-22.463c0.116-7.822,3.625-14.264,9.37-19.596c6.311-5.857,13.942-9.205,22.455-10.484
	c13.417-2.014,25.85,0.428,36.61,8.846c6.76,5.287,10.921,12.137,11.292,20.729c0.344,7.992-2.874,14.715-8.58,20.334
	c-6.473,6.375-14.468,9.846-23.452,11.273C143.66,303.701,141.021,303.814,139.569,303.953z M145.211,259.99
	c-3.979,0-7.618-0.027-11.253,0.049c-0.318,0.008-0.857,0.688-0.892,1.088c-0.274,3.113-0.457,6.23-0.65,9.35
	c-0.04,0.635-0.006,1.273-0.006,1.879c4.722,0,9.216,0,13.994,0C145.999,268.156,145.609,264.117,145.211,259.99z M133.469,286.455
	c3.769,0,7.172,0.027,10.575-0.045c0.328-0.006,0.862-0.584,0.927-0.961c0.375-2.148,0.686-4.309,0.92-6.477
	c0.176-1.621,0.205-3.258,0.3-4.896c-4.724,0-9.19,0-13.967,0C132.654,278.342,133.069,282.475,133.469,286.455z M100.342,274.037
	c-0.075,0.205-0.14,0.297-0.133,0.381c0.547,7.48,4.205,13.371,9.868,18.223c0.208,0.178,0.661,0.27,0.917,0.182
	c1.314-0.463,2.602-0.998,4.098-1.586c-3.5-5.305-5.324-11.027-5.809-17.199C106.232,274.037,103.325,274.037,100.342,274.037z
	 M109.253,272.42c-0.087-6.354,1.354-12.227,4.429-17.76c-0.868-0.426-1.653-0.711-2.322-1.16c-1.035-0.693-1.782-0.496-2.633,0.344
	c-2.836,2.797-5.217,5.893-6.73,9.555c-1.183,2.861-1.98,5.811-1.803,9.021C103.223,272.42,106.127,272.42,109.253,272.42z
	 M176.5,272.488c0.091-0.275,0.173-0.408,0.171-0.535c-0.184-7.586-3.674-13.621-9.268-18.654c-0.212-0.193-0.741-0.26-1.013-0.146
	c-1.056,0.453-2.068,1.002-3.136,1.535c0.653,1.297,1.307,2.461,1.841,3.676c1.779,4.055,2.757,8.279,2.861,12.701
	c0.012,0.479,0.443,1.35,0.709,1.361C171.282,272.527,173.905,272.488,176.5,272.488z M166.25,272.445
	c0.671-4.094-1.74-13.623-4.191-16.549c-0.199-0.238-0.848-0.311-1.2-0.199c-1.386,0.438-2.717,1.047-4.109,1.461
	c-0.986,0.293-1.216,0.645-0.997,1.703c0.653,3.148,1.139,6.334,1.617,9.516c0.2,1.334,0.218,2.693,0.321,4.068
	C160.629,272.445,163.396,272.445,166.25,272.445z M163.176,289.898c1.314,0.492,2.506,1.037,3.756,1.359
	c0.522,0.135,1.378-0.004,1.733-0.352c3.557-3.502,6.126-7.596,7.35-12.408c0.365-1.43,0.51-2.914,0.781-4.529
	c-2.917,0-5.495-0.033-8.069,0.045c-0.294,0.008-0.743,0.598-0.821,0.975c-0.249,1.205-0.314,2.443-0.525,3.656
	C166.692,282.598,165.237,286.293,163.176,289.898z M119.158,272.486c0.652-5.145,1.274-10.045,1.901-14.988
	c-1.601-0.596-3.307-1.275-5.052-1.838c-0.347-0.113-1.083,0.092-1.239,0.367c-2.747,4.83-3.835,10.08-3.944,15.551
	c-0.006,0.297,0.494,0.861,0.77,0.869C114.165,272.516,116.74,272.486,119.158,272.486z M130.611,272.49
	c0.302-4.332,0.593-8.508,0.88-12.645c-2.918-0.59-5.703-1.152-8.553-1.73c-1.4,4.492-1.753,9.012-1.822,13.563
	c-0.004,0.268,0.471,0.773,0.731,0.777C124.757,272.512,127.669,272.49,130.611,272.49z M111.158,274.045
	c-0.076,0.162-0.152,0.248-0.148,0.328c0.262,5.707,2.035,10.947,5.239,15.723c0.173,0.258,0.758,0.477,1.059,0.395
	c1.674-0.459,3.32-1.018,4.793-1.484c-0.961-5.023-1.905-9.961-2.861-14.961C116.631,274.045,113.877,274.045,111.158,274.045z
	 M130.641,274.063c-3.101,0-6.188,0-9.424,0c0.199,5.027,1.07,9.801,2.803,14.412c2.785-0.541,5.38-1.047,7.889-1.535
	C131.479,282.58,131.062,278.35,130.641,274.063z M157.859,274.033c-0.756,4.643-1.498,9.197-2.25,13.811
	c1.516,0.402,3.171,0.785,4.786,1.287c0.895,0.279,1.473,0.191,1.829-0.719c1.071-2.734,2.32-5.412,3.193-8.201
	c0.608-1.945,0.711-4.039,1.058-6.178C163.351,274.033,160.542,274.033,157.859,274.033z M144.703,258.439
	c-1.097-5.365-2.761-10.199-5.044-14.82c-0.194-0.395-1.131-0.629-1.699-0.594c-0.399,0.025-0.99,0.576-1.101,0.992
	c-1.049,3.895-2.028,7.805-2.985,11.723c-0.208,0.848-0.244,1.734-0.373,2.699C137.294,258.439,140.875,258.439,144.703,258.439z
	 M146.85,259.678c0.302,4.094,0.585,8.098,0.919,12.098c0.021,0.254,0.439,0.676,0.68,0.682c2.466,0.051,4.934,0.031,7.487,0.031
	c0.113-4.777-0.494-9.262-1.794-13.654c-0.077-0.26-0.637-0.611-0.898-0.563C151.064,258.701,148.902,259.215,146.85,259.678z
	 M146.518,286.49c2.472,0.322,4.814,0.627,7.231,0.941c1.34-4.426,2.151-8.799,2.163-13.455c-2.599,0-5.023-0.029-7.443,0.043
	c-0.266,0.008-0.697,0.578-0.737,0.924c-0.155,1.314-0.125,2.65-0.268,3.965C147.192,281.393,146.849,283.869,146.518,286.49z
	 M133.963,288.133c0.89,4.965,2.28,9.43,4.049,13.785c0.099,0.244,0.64,0.516,0.9,0.457c0.404-0.09,0.924-0.375,1.081-0.713
	c0.657-1.422,1.278-2.869,1.762-4.355c0.988-3.037,1.879-6.104,2.815-9.174C140.917,288.133,137.583,288.133,133.963,288.133z
	 M131.63,258.328c1.237-5.135,2.43-10.086,3.621-15.031c-3.558-0.479-10.891,7.803-11.633,13.395
	C126.281,257.236,128.964,257.785,131.63,258.328z M141.555,243.24c1.665,4.934,3.309,9.809,5.027,14.9
	c2.144-0.457,4.43-0.945,6.708-1.432C152.152,250.887,145.195,243.105,141.555,243.24z M136.259,302.424
	c-1.412-4.797-2.732-9.283-4.104-13.951c-2.437,0.467-4.933,0.943-7.635,1.461c2.145,4.945,4.767,9.193,9.401,11.926
	C134.532,302.221,135.368,302.221,136.259,302.424z M141.713,302.102c3.48,0.424,11.016-8.309,11.233-13.23
	c-1.809-0.223-3.637-0.422-5.455-0.684c-1.027-0.148-1.642,0.027-1.765,1.205c-0.097,0.93-0.418,1.848-0.712,2.746
	C143.929,295.469,142.815,298.787,141.713,302.102z M129.629,243.898c-5.91,1.781-10.28,5.121-13.684,10.113
	c2.098,0.746,3.984,1.414,5.752,2.043c1.168-2.291,2.059-4.467,3.326-6.406C126.312,247.676,127.973,245.934,129.629,243.898z
	 M160.682,254.137c-1.802-3.775-9.422-9.184-12.201-8.832c1.175,1.584,2.484,3.117,3.519,4.811c1.038,1.697,1.782,3.561,2.705,5.328
	c0.135,0.254,0.624,0.582,0.826,0.516C157.26,255.4,158.96,254.76,160.682,254.137z M160.608,290.701
	c-1.993-0.502-3.851-0.967-5.382-1.35c-2.241,3.758-4.35,7.297-6.397,10.732C151.97,299.506,158.395,294.621,160.608,290.701z
	 M128.961,300.07c-1.095-1.486-2.257-2.879-3.202-4.398c-0.953-1.533-1.666-3.205-2.551-4.781c-0.118-0.209-0.669-0.359-0.952-0.283
	c-1.492,0.389-2.962,0.859-4.463,1.309C119.368,294.936,126.081,299.82,128.961,300.07z M166.637,292.818
	c-1.242-0.467-2.203-0.777-3.119-1.184c-0.915-0.408-1.417-0.129-2.06,0.604c-1.604,1.828-3.333,3.555-5.078,5.26
	c-0.736,0.721-1.635,1.281-2.46,1.914c0.069,0.104,0.138,0.205,0.207,0.309C158.671,298.318,162.683,295.977,166.637,292.818z
	 M123.671,300.07c0.066-0.104,0.132-0.211,0.199-0.314c-0.115-0.146-0.211-0.314-0.348-0.436c-2.323-2.08-4.643-4.164-6.991-6.217
	c-0.248-0.219-0.722-0.424-0.995-0.34c-1.131,0.35-2.227,0.814-3.614,1.344C115.617,297,119.524,298.764,123.671,300.07z
	 M165.539,251.664c-3.181-2.336-6.322-4.318-9.322-5.209c1.239,1.357,2.893,3.09,4.45,4.898c1.857,2.158,1.823,2.188,4.365,0.721
	C165.113,252.027,165.18,251.957,165.539,251.664z M111.41,251.369c0.062,0.191,0.124,0.381,0.186,0.57
	c0.513,0.256,1.067,0.451,1.527,0.775c1.061,0.746,1.647,0.336,2.328-0.588c0.929-1.258,2.044-2.387,3.098-3.555
	c0.482-0.535,1.007-1.033,1.514-1.547c-0.119-0.158-0.238-0.314-0.358-0.473C116.94,248.158,114.175,249.764,111.41,251.369z"/>
<path style="fill-rule:evenodd;clip-rule:evenodd;fill:none;" d="M3.073,51.946c0.885,0,1.515,0,2.144,0
	c31.641,0,63.281,0.008,94.921-0.028c1.338-0.002,2.245,0.342,3.131,1.336c7.07,7.932,14.211,15.803,21.271,23.743
	c0.471,0.529,0.655,1.459,0.656,2.204c0.031,35.884,0.027,71.77,0.027,107.657c0,6.32-0.025,12.644,0.026,18.964
	c0.008,1.051-0.339,1.592-1.298,2.072c-15.791,7.883-31.554,15.821-47.354,23.691c-1.188,0.591-1.539,1.265-1.536,2.519
	c0.039,23.195,0.028,46.39,0.027,69.585c0,2.031-0.004,2.033-2.05,2.033c-22.705,0-45.41,0-68.114,0c-0.575,0-1.15,0-1.851,0
	C3.073,221.076,3.073,136.595,3.073,51.946z M17.978,181.107c0,37.261,0.009,74.52-0.034,111.78
	c-0.001,1.469,0.417,1.811,1.884,1.805c14.598-0.053,29.195-0.031,43.793-0.033c1.889,0,1.891-0.002,1.891-1.902
	c0-21.197,0.015-42.395-0.035-63.589c-0.003-1.396,0.444-2.084,1.718-2.698c14.427-6.96,28.816-13.994,43.236-20.969
	c1.06-0.513,1.466-1.099,1.468-2.273c0.024-9.546,0.162-19.094,0.189-28.642c0.043-15.255-0.001-30.512,0.048-45.768
	c0.044-13.54,0.175-27.079,0.228-40.619c0.002-0.708-0.161-1.583-0.597-2.102c-2.002-2.381-4.138-4.656-6.211-6.983
	c-2.934-3.292-5.875-6.579-8.767-9.905c-0.81-0.932-1.651-1.389-2.981-1.387c-24.558,0.042-49.116,0.031-73.674,0.031
	c-2.156,0-2.157,0-2.157,2.043C17.978,106.966,17.978,144.036,17.978,181.107z"/>
<path style="fill-rule:evenodd;clip-rule:evenodd;fill:none;" d="M261.755,305.637c-24.041,0-47.897,0-72.022,0
	c0-0.641,0-1.281,0-1.92c0-23.146-0.015-46.293,0.035-69.441c0.002-1.384-0.424-2.1-1.687-2.729
	c-15.582-7.76-31.125-15.595-46.713-23.344c-1.451-0.723-2.009-1.509-2.007-3.141c0.052-41.778,0.046-83.557,0.016-125.335
	c-0.001-1.324,0.363-2.319,1.266-3.317c7.106-7.838,14.147-15.73,21.259-23.563c0.443-0.487,1.31-0.864,1.979-0.865
	c32.128-0.041,64.256-0.031,96.383-0.057c1.13-0.001,1.664,0.284,1.497,1.437c-0.046,0.327-0.006,0.665-0.006,0.997
	c0,83.035,0,166.068,0,249.103C261.755,304.125,261.755,304.789,261.755,305.637z M246.87,181.289c0-37.167,0-74.336,0-111.505
	c0-1.928-0.002-1.931-2.014-1.931c-23.779,0-47.559,0.05-71.337-0.063c-3.001-0.014-5.057,0.632-7.017,3.042
	c-4.043,4.971-8.529,9.602-12.833,14.373c-0.859,0.953-1.263,1.981-1.252,3.332c0.128,16.203,0.205,32.406,0.246,48.608
	c0.055,21.911,0.081,43.822,0.065,65.734c-0.002,1.326,0.413,2.015,1.632,2.604c14.461,6.987,28.887,14.041,43.348,21.029
	c1.208,0.584,1.664,1.248,1.661,2.59c-0.047,21.199-0.033,42.398-0.033,63.597c0,1.959,0.001,1.959,1.948,1.959
	c14.501,0.002,29.003,0.002,43.505,0c2.08,0,2.081,0,2.081-2.004C246.87,255.531,246.87,218.412,246.87,181.289z"/>
<path style="fill-rule:evenodd;clip-rule:evenodd;fill:none;" d="M145.211,259.99c0.398,4.127,0.788,8.166,1.192,12.365
	c-4.778,0-9.272,0-13.994,0c0-0.605-0.034-1.244,0.006-1.879c0.194-3.119,0.376-6.236,0.65-9.35c0.035-0.4,0.574-1.08,0.892-1.088
	C137.594,259.963,141.232,259.99,145.211,259.99z"/>
<path style="fill-rule:evenodd;clip-rule:evenodd;fill:none;" d="M133.469,286.455c-0.399-3.98-0.815-8.113-1.244-12.379
	c4.777,0,9.243,0,13.967,0c-0.095,1.639-0.124,3.275-0.3,4.896c-0.234,2.168-0.545,4.328-0.92,6.477
	c-0.065,0.377-0.6,0.955-0.927,0.961C140.641,286.482,137.237,286.455,133.469,286.455z"/>
<path style="fill-rule:evenodd;clip-rule:evenodd;fill:none;" d="M100.342,274.037c2.983,0,5.89,0,8.941,0
	c0.485,6.172,2.31,11.895,5.809,17.199c-1.496,0.588-2.783,1.123-4.098,1.586c-0.256,0.088-0.709-0.004-0.917-0.182
	c-5.663-4.852-9.321-10.742-9.868-18.223C100.203,274.334,100.268,274.242,100.342,274.037z"/>
<path style="fill-rule:evenodd;clip-rule:evenodd;fill:none;" d="M109.253,272.42c-3.125,0-6.03,0-9.058,0
	c-0.178-3.211,0.62-6.16,1.803-9.021c1.513-3.662,3.894-6.758,6.73-9.555c0.851-0.84,1.598-1.037,2.633-0.344
	c0.668,0.449,1.454,0.734,2.322,1.16C110.607,260.193,109.166,266.066,109.253,272.42z"/>
<path style="fill-rule:evenodd;clip-rule:evenodd;fill:none;" d="M176.5,272.488c-2.595,0-5.218,0.039-7.835-0.063
	c-0.266-0.012-0.697-0.883-0.709-1.361c-0.104-4.422-1.082-8.646-2.861-12.701c-0.534-1.215-1.188-2.379-1.841-3.676
	c1.068-0.533,2.08-1.082,3.136-1.535c0.272-0.113,0.8-0.047,1.013,0.146c5.593,5.033,9.083,11.068,9.268,18.654
	C176.674,272.08,176.591,272.213,176.5,272.488z"/>
<path style="fill-rule:evenodd;clip-rule:evenodd;fill:none;" d="M166.25,272.445c-2.853,0-5.621,0-8.559,0
	c-0.103-1.375-0.121-2.734-0.321-4.068c-0.479-3.182-0.964-6.367-1.617-9.516c-0.219-1.059,0.01-1.41,0.997-1.703
	c1.393-0.414,2.723-1.023,4.109-1.461c0.352-0.111,1.001-0.039,1.2,0.199C164.51,258.822,166.921,268.352,166.25,272.445z"/>
<path style="fill-rule:evenodd;clip-rule:evenodd;fill:none;" d="M163.176,289.898c2.061-3.605,3.517-7.301,4.206-11.254
	c0.211-1.213,0.276-2.451,0.525-3.656c0.078-0.377,0.526-0.967,0.821-0.975c2.574-0.078,5.151-0.045,8.069-0.045
	c-0.271,1.615-0.417,3.1-0.781,4.529c-1.224,4.813-3.793,8.906-7.35,12.408c-0.355,0.348-1.211,0.486-1.733,0.352
	C165.682,290.936,164.49,290.391,163.176,289.898z"/>
<path style="fill-rule:evenodd;clip-rule:evenodd;fill:none;" d="M119.158,272.486c-2.418,0-4.993,0.029-7.564-0.039
	c-0.276-0.008-0.776-0.572-0.77-0.869c0.109-5.471,1.198-10.721,3.944-15.551c0.156-0.275,0.892-0.48,1.239-0.367
	c1.746,0.563,3.452,1.242,5.052,1.838C120.432,262.441,119.811,267.342,119.158,272.486z"/>
<path style="fill-rule:evenodd;clip-rule:evenodd;fill:none;" d="M130.611,272.49c-2.941,0-5.854,0.021-8.764-0.035
	c-0.26-0.004-0.736-0.51-0.731-0.777c0.069-4.551,0.422-9.07,1.822-13.563c2.851,0.578,5.635,1.141,8.553,1.73
	C131.204,263.982,130.913,268.158,130.611,272.49z"/>
<path style="fill-rule:evenodd;clip-rule:evenodd;fill:none;" d="M111.158,274.045c2.719,0,5.473,0,8.082,0
	c0.956,5,1.9,9.938,2.861,14.961c-1.473,0.467-3.119,1.025-4.793,1.484c-0.301,0.082-0.885-0.137-1.059-0.395
	c-3.204-4.775-4.977-10.016-5.239-15.723C111.006,274.293,111.082,274.207,111.158,274.045z"/>
<path style="fill-rule:evenodd;clip-rule:evenodd;fill:none;" d="M130.641,274.063c0.421,4.287,0.838,8.518,1.268,12.877
	c-2.508,0.488-5.104,0.994-7.889,1.535c-1.733-4.611-2.604-9.385-2.803-14.412C124.453,274.063,127.54,274.063,130.641,274.063z"/>
<path style="fill-rule:evenodd;clip-rule:evenodd;fill:none;" d="M157.859,274.033c2.683,0,5.492,0,8.616,0
	c-0.346,2.139-0.449,4.232-1.058,6.178c-0.873,2.789-2.123,5.467-3.193,8.201c-0.356,0.91-0.935,0.998-1.829,0.719
	c-1.615-0.502-3.27-0.885-4.786-1.287C156.361,283.23,157.104,278.676,157.859,274.033z"/>
<path style="fill-rule:evenodd;clip-rule:evenodd;fill:none;" d="M144.703,258.439c-3.828,0-7.409,0-11.202,0
	c0.128-0.965,0.165-1.852,0.373-2.699c0.957-3.918,1.937-7.828,2.985-11.723c0.111-0.416,0.702-0.967,1.101-0.992
	c0.568-0.035,1.505,0.199,1.699,0.594C141.942,248.24,143.606,253.074,144.703,258.439z"/>
<path style="fill-rule:evenodd;clip-rule:evenodd;fill:none;" d="M146.85,259.678c2.052-0.463,4.215-0.977,6.395-1.406
	c0.261-0.049,0.821,0.303,0.898,0.563c1.3,4.393,1.907,8.877,1.794,13.654c-2.553,0-5.021,0.02-7.487-0.031
	c-0.241-0.006-0.659-0.428-0.68-0.682C147.435,267.775,147.151,263.771,146.85,259.678z"/>
<path style="fill-rule:evenodd;clip-rule:evenodd;fill:none;" d="M146.518,286.49c0.331-2.621,0.674-5.098,0.945-7.582
	c0.144-1.314,0.113-2.65,0.268-3.965c0.04-0.346,0.471-0.916,0.737-0.924c2.42-0.072,4.844-0.043,7.443-0.043
	c-0.012,4.656-0.822,9.029-2.163,13.455C151.332,287.117,148.99,286.813,146.518,286.49z"/>
<path style="fill-rule:evenodd;clip-rule:evenodd;fill:none;" d="M133.963,288.133c3.62,0,6.955,0,10.606,0
	c-0.936,3.07-1.827,6.137-2.815,9.174c-0.483,1.486-1.105,2.934-1.762,4.355c-0.157,0.338-0.677,0.623-1.081,0.713
	c-0.26,0.059-0.801-0.213-0.9-0.457C136.243,297.563,134.853,293.098,133.963,288.133z"/>
<path style="fill-rule:evenodd;clip-rule:evenodd;fill:none;" d="M131.63,258.328c-2.666-0.543-5.349-1.092-8.013-1.637
	c0.742-5.592,8.076-13.873,11.633-13.395C134.06,248.242,132.867,253.193,131.63,258.328z"/>
<path style="fill-rule:evenodd;clip-rule:evenodd;fill:none;" d="M141.555,243.24c3.64-0.135,10.598,7.646,11.735,13.469
	c-2.278,0.486-4.564,0.975-6.708,1.432C144.864,253.049,143.219,248.174,141.555,243.24z"/>
<path style="fill-rule:evenodd;clip-rule:evenodd;fill:none;" d="M136.259,302.424c-0.891-0.203-1.727-0.203-2.338-0.564
	c-4.634-2.732-7.256-6.98-9.401-11.926c2.702-0.518,5.199-0.994,7.635-1.461C133.527,293.141,134.848,297.627,136.259,302.424z"/>
<path style="fill-rule:evenodd;clip-rule:evenodd;fill:none;" d="M141.713,302.102c1.102-3.314,2.216-6.633,3.301-9.963
	c0.294-0.898,0.615-1.816,0.712-2.746c0.124-1.178,0.738-1.354,1.765-1.205c1.818,0.262,3.646,0.461,5.455,0.684
	C152.729,293.793,145.193,302.525,141.713,302.102z"/>
<path style="fill-rule:evenodd;clip-rule:evenodd;fill:none;" d="M129.629,243.898c-1.656,2.035-3.317,3.777-4.605,5.75
	c-1.268,1.939-2.158,4.115-3.326,6.406c-1.768-0.629-3.654-1.297-5.752-2.043C119.349,249.02,123.719,245.68,129.629,243.898z"/>
<path style="fill-rule:evenodd;clip-rule:evenodd;fill:none;" d="M160.682,254.137c-1.722,0.623-3.422,1.264-5.151,1.822
	c-0.202,0.066-0.691-0.262-0.826-0.516c-0.923-1.768-1.667-3.631-2.705-5.328c-1.034-1.693-2.343-3.227-3.519-4.811
	C151.26,244.953,158.88,250.361,160.682,254.137z"/>
<path style="fill-rule:evenodd;clip-rule:evenodd;fill:none;" d="M160.608,290.701c-2.214,3.92-8.638,8.805-11.779,9.383
	c2.047-3.436,4.157-6.975,6.397-10.732C156.757,289.734,158.616,290.199,160.608,290.701z"/>
<path style="fill-rule:evenodd;clip-rule:evenodd;fill:none;" d="M128.961,300.07c-2.88-0.25-9.593-5.135-11.168-8.154
	c1.501-0.449,2.971-0.92,4.463-1.309c0.282-0.076,0.834,0.074,0.952,0.283c0.886,1.576,1.599,3.248,2.551,4.781
	C126.704,297.191,127.866,298.584,128.961,300.07z"/>
<path style="fill-rule:evenodd;clip-rule:evenodd;fill:none;" d="M166.637,292.818c-3.954,3.158-7.966,5.5-12.511,6.902
	c-0.069-0.104-0.138-0.205-0.207-0.309c0.825-0.633,1.725-1.193,2.46-1.914c1.745-1.705,3.474-3.432,5.078-5.26
	c0.643-0.732,1.145-1.012,2.06-0.604C164.435,292.041,165.396,292.352,166.637,292.818z"/>
<path style="fill-rule:evenodd;clip-rule:evenodd;fill:none;" d="M123.671,300.07c-4.147-1.307-8.055-3.07-11.749-5.963
	c1.387-0.529,2.482-0.994,3.614-1.344c0.273-0.084,0.748,0.121,0.995,0.34c2.348,2.053,4.667,4.137,6.991,6.217
	c0.136,0.121,0.233,0.289,0.348,0.436C123.803,299.859,123.738,299.967,123.671,300.07z"/>
<path style="fill-rule:evenodd;clip-rule:evenodd;fill:none;" d="M165.539,251.664c-0.359,0.293-0.426,0.363-0.507,0.41
	c-2.542,1.467-2.507,1.438-4.365-0.721c-1.557-1.809-3.21-3.541-4.45-4.898C159.217,247.346,162.358,249.328,165.539,251.664z"/>
<path style="fill-rule:evenodd;clip-rule:evenodd;fill:none;" d="M111.41,251.369c2.765-1.605,5.53-3.211,8.294-4.816
	c0.12,0.158,0.239,0.314,0.358,0.473c-0.506,0.514-1.032,1.012-1.514,1.547c-1.054,1.168-2.169,2.297-3.098,3.555
	c-0.681,0.924-1.268,1.334-2.328,0.588c-0.46-0.324-1.014-0.52-1.527-0.775C111.534,251.75,111.472,251.561,111.41,251.369z"/>
<path style="fill-rule:evenodd;clip-rule:evenodd;fill:#EB6924;" d="M17.978,181.107c0-37.071,0-74.141,0-111.21
	c0-2.043,0-2.043,2.157-2.043c24.558,0,49.116,0.011,73.674-0.031c1.33-0.002,2.171,0.455,2.981,1.387
	c2.892,3.326,5.833,6.613,8.767,9.905c2.073,2.327,4.208,4.602,6.211,6.983c0.436,0.519,0.599,1.393,0.597,2.102
	c-0.053,13.54-0.184,27.079-0.228,40.619c-0.049,15.255-0.005,30.513-0.048,45.768c-0.027,9.548-0.165,19.096-0.189,28.642
	c-0.002,1.175-0.408,1.761-1.468,2.273c-14.42,6.975-28.81,14.009-43.236,20.969c-1.274,0.614-1.721,1.302-1.718,2.698
	c0.05,21.195,0.036,42.392,0.035,63.589c0,1.9-0.002,1.902-1.891,1.902c-14.598,0.002-29.195-0.02-43.793,0.033
	c-1.467,0.006-1.885-0.336-1.884-1.805C17.987,255.627,17.978,218.368,17.978,181.107z"/>
<path style="fill-rule:evenodd;clip-rule:evenodd;fill:#EB6924;" d="M246.87,181.289c0,37.123,0,74.243,0,111.366
	c0,2.004-0.001,2.004-2.081,2.004c-14.501,0.002-29.003,0.002-43.505,0c-1.947,0-1.948,0-1.948-1.959
	c0-21.199-0.014-42.398,0.033-63.597c0.003-1.342-0.453-2.006-1.661-2.59c-14.461-6.988-28.887-14.042-43.348-21.029
	c-1.22-0.589-1.634-1.277-1.632-2.604c0.016-21.913-0.01-43.823-0.065-65.734c-0.041-16.202-0.117-32.405-0.246-48.608
	c-0.011-1.351,0.393-2.379,1.252-3.332c4.303-4.771,8.789-9.402,12.833-14.373c1.959-2.409,4.016-3.055,7.017-3.042
	c23.778,0.113,47.558,0.063,71.337,0.063c2.012,0,2.014,0.002,2.014,1.931C246.87,106.952,246.87,144.121,246.87,181.289z"/>
<g>
	<path style="fill:#208DCD;" d="M530.671,63.346c-8.05,13.3-7,32.2-7,49.701c0,42.001-1.75,85.751,2.8,127.752
		c1.75,15.75,3.15,31.85,10.85,45.851h-51.451c6.3-17.501,6.3-43.401,6.3-63.001V107.447c0-3.5,0-7.7-2.45-7.7
		c-2.45,0-3.5,2.45-4.55,5.25L406.769,290.15l-66.501-171.854c-3.85-10.15-6.3-18.55-9.45-18.55c-3.15,0-3.15,6.3-3.15,11.55
		l-0.35,113.752c0,27.301,0,50.051,7.7,61.602h-41.651l3.15-4.551c12.95-18.551,14.35-73.851,14.35-111.652V82.946
		c0-9.45-0.35-14.35-8.75-19.6h43.401c4.2,0,9.45,0.7,10.85,5.25l51.801,152.603c1.75,5.25,2.8,11.2,5.6,11.2
		c3.15,0,4.2-3.5,6.3-8.4l60.551-145.953c3.15-7.35,5.6-14.7,14.35-14.7H530.671z"/>
	<path style="fill:#208DCD;" d="M605.563,272.649h40.25c21.701,0,44.101-5.25,60.551-19.95l-6.3,32.201
		c-9.45,0.699-21,1.75-33.601,1.75H565.313c7.7-11.9,8.75-30.102,8.75-45.851V109.197c0-15.75,0-33.951-7.7-45.851h122.152
		l1.4,26.95c-12.25-10.5-31.151-12.95-51.801-12.95h-32.55v83.651c26.95,0,55.301,0,82.251-2.45
		c-12.25,19.95-51.801,19.95-73.501,19.95h-8.75V272.649z"/>
	<path style="fill:#208DCD;" d="M781.959,286.65c7.7-11.9,7.7-30.102,7.7-45.851V80.846h-46.551c-8.05,0-16.1,1.05-24.85,7.7l7-25.2
		h176.053c-5.95,15.05-27.301,17.5-41.651,17.5h-38.5v159.953c0,15.75,0,33.951,7.7,45.851H781.959z"/>
	<path style="fill:#208DCD;" d="M1070.006,254.1c10.15,13.65,15.05,19.25,29.4,32.551h-28.7c-15.05,0-21.701-8.051-29.401-19.251
		l-42.701-60.901c-14.7-21-17.15-26.951-37.451-28.701v63.001c0,15.75,0,33.951,7.7,45.851h-48.651
		c10.15-16.101,9.45-32.9,9.45-47.951V109.197c0-15.75,0-33.951-7.7-45.851c29.4,0,57.401-3.5,84.702-3.5
		c35.701,0,54.251,19.601,54.251,46.901c0,32.201-26.601,53.201-51.801,63.351L1070.006,254.1z M961.154,164.148
		c5.25,0.7,10.5,1.05,15.75,1.05c33.951,0,52.501-18.2,52.501-51.451c0-35.001-19.951-39.201-51.101-39.901h-16.45
		c-0.35,5.25-0.7,11.2-0.7,16.8V164.148z"/>
	<path style="fill:#208DCD;" d="M1195.655,292.25c-73.501,0-105.702-50.401-105.702-112.702c0-66.501,38.5-121.802,111.302-121.802
		c73.502,0,105.702,50.401,105.702,112.702C1306.958,236.949,1268.457,292.25,1195.655,292.25z M1198.456,73.146
		c-50.401,0-72.102,46.201-72.102,96.602c0,46.201,15.75,107.102,72.102,107.102c50.4,0,72.102-46.201,72.102-96.602
		C1270.557,134.047,1254.806,73.146,1198.456,73.146z"/>
	<path style="fill:#208DCD;" d="M1501.906,104.646h-1.05c-8.4-15.05-20.301-31.5-56.352-31.5c-54.951,0-76.651,45.151-76.651,94.852
		c0,54.951,28.001,97.651,85.401,97.651c30.101,0,50.401-12.95,60.552-24.15v2.101c0,15.75-25.201,48.65-79.802,48.65
		c-63.701,0-102.901-50.401-102.552-114.452c0-71.751,42.351-120.052,113.402-120.052c20.3,0,35,2.8,58.451,2.8L1501.906,104.646z"
		/>
	<path style="fill:#208DCD;" d="M1688.101,109.197c0-15.75-0.35-31.851-8.05-45.851h47.601c-7.7,14-8.05,30.1-8.05,45.851v131.603
		c0,15.75,0.35,31.85,8.05,45.851h-47.601c7.7-14.001,8.05-30.102,8.05-45.851v-67.551H1584.5v67.551
		c0,15.75,0.35,31.85,8.05,45.851h-47.601c7.7-14.001,8.05-30.102,8.05-45.851V109.197c0-15.75-0.35-31.851-8.05-45.851h47.601
		c-7.7,14-8.05,30.1-8.05,45.851v50.051h103.602V109.197z"/>
	<path style="fill:#208DCD;" d="M1804.645,272.649h40.251c21.7,0,44.101-5.25,60.551-19.95l-6.3,32.201
		c-9.45,0.699-21,1.75-33.601,1.75h-101.151c7.7-11.9,8.75-30.102,8.75-45.851V109.197c0-15.75,0-33.951-7.7-45.851h122.152
		l1.399,26.95c-12.25-10.5-31.15-12.95-51.801-12.95h-32.551v83.651c26.951,0,55.302,0,82.252-2.45
		c-12.25,19.95-51.801,19.95-73.501,19.95h-8.751V272.649z"/>
	<path style="fill:#208DCD;" d="M2163.745,63.346c-8.05,13.3-7,32.2-7,49.701c0,42.001-1.75,85.751,2.8,127.752
		c1.75,15.75,3.15,31.85,10.851,45.851h-51.451c6.3-17.501,6.3-43.401,6.3-63.001V107.447c0-3.5,0-7.7-2.45-7.7s-3.5,2.45-4.55,5.25
		l-78.401,185.154l-66.501-171.854c-3.851-10.15-6.3-18.55-9.45-18.55s-3.15,6.3-3.15,11.55l-0.35,113.752
		c0,27.301,0,50.051,7.7,61.602h-41.651l3.15-4.551c12.95-18.551,14.351-73.851,14.351-111.652V82.946c0-9.45-0.351-14.35-8.75-19.6
		h43.4c4.2,0,9.45,0.7,10.851,5.25l51.801,152.603c1.75,5.25,2.8,11.2,5.6,11.2c3.15,0,4.2-3.5,6.3-8.4l60.552-145.953
		c3.149-7.35,5.6-14.7,14.35-14.7H2163.745z"/>
</g>
</svg>
